<?xml version="1.0" encoding="utf-8"?>
<svg viewBox="0 0 217 75" xmlns="http://www.w3.org/2000/svg">
  <!-- Fundo branco -->
  <rect width="217" height="75" fill="white"/>
  
  <g id="Camada_2" data-name="Camada 2" transform="matrix(0.9999999999999999, 0, 0, 0.9999999999999999, 0, 0.04555550658040275)">
    <g id="Camada_1-2" data-name="Camada 1">
      <g>
        <title>Express</title>
        <path class="cls-1" d="M42.36,70c.18-2.42,1.1-4.68,1.56-7,.23-1.18,1-2.32.29-3.63h8.94c0,.78-.55.78-1,.79-1,0-2,0-3,0-.55,0-.83.14-1,.74-.22,1-.57,2-.88,3.14a43.92,43.92,0,0,0,4.51.18c-1.43,1.45-3.15.54-4.69,1l-1,3.74a30.68,30.68,0,0,0,4.26.18c0,.54-.66.5-.74.92Z" style="fill: rgb(20, 51, 91);">
          <title>E</title>
        </path>
        <path class="cls-1" d="M52.45,70a4.47,4.47,0,0,1,1.94-2.17c2.3-1.67,2.71-3.6,1.39-6.06a6,6,0,0,1-.72-2.53c1.13,0,2.23,0,3.32,0,.56,0,.84.16,1,.74a18.09,18.09,0,0,0,.62,2,11.89,11.89,0,0,0,2.09-2.11c.8-.9,1.77-.47,2.87-.31-1.28,1.23-2.53,2.49-3.85,3.67a1.39,1.39,0,0,0-.41,1.73c.59,1.69,1.11,3.4,1.65,5.1H58.09a10.57,10.57,0,0,0-.73-2.59L54.57,70Z" style="fill: rgb(20, 51, 91);">
          <title>X</title>
        </path>
        <path class="cls-1" d="M65.36,70q1-4.19,2.06-8.37a2.4,2.4,0,0,0-.18-2.39c2.8,0,5.46,0,8.12,0,1.19,0,1.72.66,1.48,1.83-.29,1.37-.64,2.73-1,4.07A2.43,2.43,0,0,1,73.36,67c-.39,0-.79,0-1.18,0-2.78.08-2.81.11-3.06,3Zm8-9.77c-.74,0-1.63-.51-1.92.35-.59,1.73-1,3.54-1.47,5.46.86-.13,1.74.49,2-.59C72.54,63.77,72.94,62,73.39,60.24Z" style="fill: rgb(20, 51, 91);">
          <title>P</title>
        </path>
        <path class="cls-1" d="M77.57,70c0-2.12.89-4.08,1.3-6.13.2-1,.47-2,.76-2.92a2.58,2.58,0,0,0-.22-1.69c2.83,0,5.55,0,8.26,0,.52,0,1.2.29,1.15,1-.16,2.08-.31,4.33-1.89,5.81a2.07,2.07,0,0,0-.6,2.81A2.65,2.65,0,0,1,86.49,70H83a9.72,9.72,0,0,0-1-3.08A10.49,10.49,0,0,0,81.09,70Zm7.81-9.73c-1.85-.24-1.84-.24-2.22,1.3-.24,1-.51,2-.76,3-.13.52-.42,1-.09,1.58.76.14,1.49.22,1.75-.76C84.5,63.74,84.93,62.05,85.38,60.28Z" style="fill: rgb(20, 51, 91);">
          <title>R</title>
        </path>
        <path class="cls-1" d="M89.3,70c.63-3.55,2.13-6.94,2.31-10.69h8.65c-.3.82-.3.82-2.09.83H95.53a25.41,25.41,0,0,0-1.06,4h4.35c-.57.94-1.39.9-2.19.9s-1.64,0-2.48,0l-.88,3.83a26.87,26.87,0,0,0,4,.22c.2.51-.53.5-.5.9Z" style="fill: rgb(20, 51, 91);">
          <title>E2</title>
        </path>
        <path class="cls-1" d="M99.63,70c.19-.81.83-.91,1.5-.92a28.2,28.2,0,0,1,3.05,0c.78.05,1.16-.21,1.23-1a7.6,7.6,0,0,0,.32-2.1c-1.06,0-2.11,0-3.15,0-1.52,0-2-.67-1.7-2.16,1.09-4.67,1.15-4.73,5.64-4.61,1.47,0,3,0,4.59,0a2.08,2.08,0,0,1-1.78.91c-.86,0-1.72.09-2.57,0-1.05-.12-1.5.31-1.61,1.3a11.4,11.4,0,0,1-.34,1.5,8.76,8.76,0,0,0,3.19.26c1.69,0,2.1.5,1.74,2.12-.15.69-.37,1.36-.47,2A3.91,3.91,0,0,1,107.38,70Z" style="fill: rgb(20, 51, 91);">
          <title>S</title>
        </path>
        <path class="cls-1" d="M110.9,70c.22-.85.92-.91,1.62-.93,1.28,0,2.56,0,3.89,0l.67-2.91a17.58,17.58,0,0,0-3.36-.15c-1.3,0-1.78-.47-1.63-1.76a10.62,10.62,0,0,1,1-3.66,2.28,2.28,0,0,1,2.25-1.37c2.29.06,4.58,0,7,0-.71,1-1.68.89-2.58.9h-2.88a9.52,9.52,0,0,0-.74,2.83,11.43,11.43,0,0,0,3.39.23c1.34,0,1.84.63,1.56,1.92-.16.77-.43,1.51-.54,2.27A3.93,3.93,0,0,1,118.64,70Z" style="fill: rgb(20, 51, 91);">
          <title>S2</title>
        </path>
      </g>
      <g>
        <title>Logo</title>
        <path class="cls-3" d="M57.29,25.35l-3.46,6.26c-3.13,5.67-6.28,11.32-9.36,17a3,3,0,0,1-3,1.74c-5.36-.07-10.72,0-16.08,0-2.08,0-2.16-.13-2.54-2.18-1.08-5.93-2.21-11.85-3.34-17.86-.58.28-.58.76-.69,1.18Q16.66,40,14.47,48.53c-.4,1.58-.71,1.79-2.37,1.8H6.47c-1.46,0-1.62-.18-1.25-1.55C8,38.25,10.76,27.7,13.68,17.21c.71-2.53.87-4.61-1.51-6.25a2.84,2.84,0,0,1-.53-.61s0-.08,0-.16c.22-.49.7-.35,1.1-.35q9.74,0,19.48,0c1.63,0,1.82.18,2.14,1.83,1.49,7.88,3,15.76,4.46,23.63a38.69,38.69,0,0,0,1.11,5.2c.76-.36.94-1,1.25-1.58,4.94-8.9,9.9-17.79,14.76-26.73A4,4,0,0,1,60.1,9.78c3.94.16,7.9.05,12.05.05-.7.79-1.31,1.47-1.9,2.16-5.5,6.39-7.42,13.82-6.39,22.1a26.73,26.73,0,0,0,5.27,12.84c.16.22.32.44.47.67.87,1.36.28,2.68-1.33,2.7-5.28.05-10.56,0-15.84,0-1.22,0-1-.86-.8-1.58.78-3.17,1.59-6.33,2.4-9.5,1.06-4.15,2.11-8.29,3.18-12.44A2.61,2.61,0,0,0,57.29,25.35Z" style="fill: rgb(19, 106, 178);">
          <title>M</title>
        </path>
        <path class="cls-4" d="M121.37,50.27a32.93,32.93,0,0,1-8.51,6.46,2.38,2.38,0,0,1-1.15.15c-9.15,0-18.3,0-27.45,0A4.17,4.17,0,0,1,81.89,56c-7.85-5-12.76-12-14-21.38s.87-18,7.48-25.1a28.86,28.86,0,0,1,17-9.1c10.2-1.64,19.08,1.11,26.82,7.81,1.34,1.15,1.33,1.15.14,2.53-1.9,2.18-3.81,4.34-5.67,6.56-.55.65-.91.73-1.6.17a24.68,24.68,0,0,0-9.75-5.19A16.94,16.94,0,0,0,81.11,27.09c-.62,5.23.23,10.12,3.42,14.43,4.84,6.55,12.55,8.58,20.4,5.46a28,28,0,0,0,7.35-4.54l1-.81Z" style="fill: rgb(32, 167, 220);">
          <title>C</title>
        </path>
        <path class="cls-3" d="M141,13.87a2.43,2.43,0,0,0-1.67-.42l-13.72-.11a2.9,2.9,0,0,1-2.93-1.61A3.62,3.62,0,0,1,126,9.81c12.67.08,25.34,0,38,.06a3.66,3.66,0,0,1,2.1.33c-.66.84-1.27,1.7-2,2.49-2.16,2.52-4.38,5-6.48,7.55-.83,1-1.76,1.94-2.55,3a1.35,1.35,0,0,1-1.73.48,9.13,9.13,0,0,0-6.31.05,4,4,0,0,0-2.5,2.38L150,29.24,135.53,46.16c.38.62.85.52,1.26.52,4.61.06,9.23.15,13.84.13a3.45,3.45,0,0,1,3.05,1.34c.51.66,1.29,1.11,1.62,1.91-.36.38-.78.25-1.15.25H126.47a1.36,1.36,0,0,1-1.09-.28l-8.11-7.62a3.23,3.23,0,0,1-.36-.48Z" style="fill: rgb(19, 106, 178);">
          <title>Z</title>
        </path>
        <path class="cls-1" d="M144.78,45.17A150.06,150.06,0,0,1,156.36,33.3a1.71,1.71,0,0,1,2.14-.22,17.5,17.5,0,0,1,4.86,4c3.31,3.57,5.87,7.68,8.54,11.72q2.61,4,5.2,7.93a7.81,7.81,0,0,0,6,3.59c-1.73-5.73-3.43-11.35-5.21-17.26l5.43,2.88c3.54,1.9,7.07,3.81,10.62,5.7.48.26.88.49.64,1.15-2.27,6.4-5.59,11.94-12.21,14.73a28.33,28.33,0,0,1-9.45,2c-5.47.31-10.95.26-16.43.26H122.93a2.61,2.61,0,0,1,.89-2.16c4.89-5.22,9.8-10.41,14.68-15.63a1.61,1.61,0,0,1,1.36-.46l16.31,0c.61,0,1.26.09,1.76-.49a4.85,4.85,0,0,0-1.52-1.86c-4-4.13-3.2-4-9.22-4Z" style="fill: rgb(20, 51, 91);"/>
        <path class="cls-5" d="M162.19,27.47a6,6,0,0,1,.61-.82c5.7-5.89,11.21-12,17.2-17.58a30.81,30.81,0,0,1,16.9-7.86A138.71,138.71,0,0,1,214.78.05c.23,0,.46,0,.95.07-5,15.86-11.47,31.06-18,46.22C192.59,44.6,163.55,29.18,162.19,27.47Zm9.63,1.4a4.08,4.08,0,0,0,.45.5,28.68,28.68,0,0,0,9.86,5.24,4.69,4.69,0,0,0,2.65,0c2.95-.88,5.92-1.71,8.87-2.61a34.93,34.93,0,0,0,5-1.77,2.91,2.91,0,0,0-2-1.89,15.08,15.08,0,0,0-4.46-.92,78,78,0,0,0-14.49.55A31,31,0,0,0,171.82,28.87Z" style="fill: rgb(8, 116, 183);"/>
      </g>
      <g>
        <title>Linhas</title>
        <g>
          <g>
            <path class="cls-4" d="M42.35,60.3H2.59v-.21H42.36Z" style="fill: rgb(32, 167, 220);">
              <title>L1</title>
            </path>
            <path class="cls-3" d="M41.39,63.45H1.64v-.21H41.41Z" style="fill: rgb(19, 106, 178);">
              <title>L2</title>
            </path>
            <path class="cls-1" d="M40.51,66.28H.75v-.21H40.52Z" style="fill: rgb(20, 51, 91);">
              <title>L3</title>
            </path>
            <path class="cls-1" d="M39.7,69.67H0v-.24H39.71Z" style="fill: rgb(20, 51, 91);">
              <title>L4</title>
            </path>
          </g>
        </g>
      </g>
      <g>
        <title>Relogio</title>
        <path class="cls-1" d="M102.22,18.25q-.78,4-1.57,8a2.82,2.82,0,0,0,.21,2.21,3.32,3.32,0,0,1-1.66,4.77,3.43,3.43,0,0,1-4.56-1.86,3.47,3.47,0,0,1,2.25-4.58,2.14,2.14,0,0,0,1.55-1.36C99.6,23,100.79,20.61,102,18.2Z" style="fill: rgb(20, 51, 91);">
          <title>Ponteiro</title>
        </path>
        <path class="cls-1" d="M106,18a1.55,1.55,0,0,1-.91-.65c.34-.59.68-1.19,1-1.78.17-.27.39-.48.76-.25s.24.5.09.79C106.62,16.75,106.31,17.36,106,18Z" style="fill: rgb(20, 51, 91);"/>
        <path class="cls-1" d="M98.69,13.23V15.4c0,.26-.08.46-.38.47s-.51,0-.54-.31a12.88,12.88,0,0,1-.11-2C97.7,13,98.16,13.06,98.69,13.23Z" style="fill: rgb(20, 51, 91);"/>
        <path class="cls-1" d="M91.66,17.54a1.32,1.32,0,0,1-.88.55,5.89,5.89,0,0,1-1.13-1.84.47.47,0,0,1,.15-.7.45.45,0,0,1,.69.18C90.88,16.31,91.25,16.9,91.66,17.54Z" style="fill: rgb(20, 51, 91);"/>
        <path class="cls-1" d="M83.48,22.49c.5-1,.78-.93,2.67.49C85.71,24,85.29,23.94,83.48,22.49Z" style="fill: rgb(20, 51, 91);"/>
        <path class="cls-1" d="M84.51,30.3c.11.56-.16.79-.61.82s-1.17,0-1.75,0c-.32,0-.52-.09-.52-.45s.15-.51.49-.49A11.21,11.21,0,0,1,84.51,30.3Z" style="fill: rgb(20, 51, 91);"/>
        <path class="cls-1" d="M84.72,39.53c-.69-1-.69-1,1.68-2.21a1.13,1.13,0,0,1,.54.92Z" style="fill: rgb(20, 51, 91);"/>
        <path class="cls-1" d="M92.49,43a7.1,7.1,0,0,1-1,1.89c-.16.23-.34.44-.66.27a.51.51,0,0,1-.24-.77l.79-1.41C91.72,42.29,92.08,42.58,92.49,43Z" style="fill: rgb(20, 51, 91);"/>
        <path class="cls-1" d="M99.62,46.91c-.87.31-.92-.15-.93-.73,0-1.8-.06-1.8.85-1.86A12.3,12.3,0,0,1,99.62,46.91Z" style="fill: rgb(20, 51, 91);"/>
        <path class="cls-1" d="M105.77,42.3c.66-.58,1.07-.48,1.38.18.18.38.39.76.59,1.13a.5.5,0,0,1-.21.78c-.33.18-.52,0-.67-.26C106.49,43.54,106.14,42.94,105.77,42.3Z" style="fill: rgb(20, 51, 91);"/>
      </g>
    </g>
  </g>
</svg>